<svg id="Слой_1" data-name="Слой 1" xmlns="http://www.w3.org/2000/svg" viewBox="0 0 60 90"><defs><style>.cls-1{fill:#fff;fill-rule:evenodd;}</style></defs><title>Монтажная область 4</title><path class="cls-1" d="M48,33.35a37.17,37.17,0,0,1-.74,6.82,42.61,42.61,0,0,0-.84-9.69A42.34,42.34,0,0,0,42.59,20a41.72,41.72,0,0,0-3.82,10.43,48.92,48.92,0,0,0-.88,9.81,48,48,0,0,1-.64-9.5,41.78,41.78,0,0,1,1.38-8.61,45.55,45.55,0,0,1,4-9.45,42.72,42.72,0,0,1,4,9.33A41.33,41.33,0,0,1,48,33.35M42.62,52.78a18.09,18.09,0,0,1-2-8.25,17.35,17.35,0,0,1,2.06-8.14,18.28,18.28,0,0,1,2,7.78,17.55,17.55,0,0,1-2,8.58m5.83-30.68A42.18,42.18,0,0,0,42.62,9.12a45.15,45.15,0,0,0-5.41,11.32,40.69,40.69,0,0,0-1.38,16.31,45.15,45.15,0,0,0,2.75,10.47,36.91,36.91,0,0,0,4.06,7.19,38.6,38.6,0,0,0,6.65-17C50,32.77,50,28.69,48.47,22"/><path class="cls-1" d="M33.3,55.84v7.87h0a7.07,7.07,0,0,1,10,0,7,7,0,0,1,0,9.9l0,0h-.09A14,14,0,1,1,33.3,49.71V30.94A25,25,0,1,0,51.59,73V55.84H33.3"/></svg>