<svg id="Слой_1" data-name="Слой 1" xmlns="http://www.w3.org/2000/svg" viewBox="0 0 170 90"><defs><style>.cls-1{fill:#fff;fill-rule:evenodd;}</style></defs><title>Монтажная область 3</title><path class="cls-1" d="M132.84,53.75a1,1,0,0,1-1.06-1v-17a1.07,1.07,0,0,1,1.24-.87,1.09,1.09,0,0,1,.87.87v17a1,1,0,0,1-1.06,1m2-21.94h-3.95c-3.37,0-3.57,2.75-3.57,4.47V52.36c0,1.76.2,4.48,3.57,4.48h4c3.36,0,3.57-2.75,3.57-4.48V36.28c0-1.75-.21-4.47-3.57-4.47"/><polygon class="cls-1" points="59.88 31.8 69.05 31.8 69.05 34.91 64.69 34.91 64.69 56.84 59.88 56.84 59.88 31.8"/><path class="cls-1" d="M69.76,56.84h4.69l.45-6.65h2.31l.44,6.65h4.7l-2.52-25H72.26Zm5.33-9.4.82-12.52h.27L77,47.44Z"/><path class="cls-1" d="M89.21,48.08v4.71a.76.76,0,0,0,.7.82H90a.8.8,0,0,0,.75-.83V47c0-.78-.14-1.63-1.93-1.63h-2V42.57H88.9c1.38,0,1.86-.32,1.86-1.85v-5a.77.77,0,0,0-.75-.81h0a.75.75,0,0,0-.77.74s0,.05,0,.07v4.09H84.43V36.28c0-1.76.21-4.47,3.58-4.47h4c3.37,0,3.57,2.71,3.57,4.47v4c0,2.75-1.82,3.44-3.26,3.39v.25c3.23-.08,3.26,2.5,3.26,3.4v5c0,1.76-.2,4.48-3.57,4.48H88c-3.37,0-3.58-2.75-3.58-4.48V48.08h4.82"/><polygon class="cls-1" points="98.7 31.8 109.83 31.8 109.83 56.84 105.35 56.84 105.35 34.91 103.18 34.91 103.18 56.84 98.7 56.84 98.7 31.8"/><path class="cls-1" d="M113.31,56.84h4.81V48.33h2.76c3.36,0,3.9-2.75,3.9-4.48V36.28c0-1.75-.54-4.46-3.9-4.46h-7.57v25m4.81-11.27V34.92h1.27c.52,0,.9.46.9,1.24v8.17c0,.78-.38,1.24-.9,1.24Z"/><polygon class="cls-1" points="153.75 31.8 160 31.8 160 56.84 155.19 56.84 155.19 41.14 155.02 41.14 152.54 56.84 148.7 56.84 146.22 41.14 146.05 41.14 146.05 56.84 141.24 56.84 141.24 31.8 147.49 31.8 150.62 49.4 153.75 31.8"/><path class="cls-1" d="M49.62,34.35a36.32,36.32,0,0,1-.74,6.82,43.18,43.18,0,0,0-.83-9.69A42.35,42.35,0,0,0,44.18,21a41.69,41.69,0,0,0-3.81,10.43,48.93,48.93,0,0,0-.89,9.81,48.75,48.75,0,0,1-.63-9.5,41.77,41.77,0,0,1,1.37-8.61,46.09,46.09,0,0,1,4-9.45,42.76,42.76,0,0,1,4,9.33,41.32,41.32,0,0,1,1.44,11.34M44.21,53.78a18.09,18.09,0,0,1-2-8.25,17.35,17.35,0,0,1,2.06-8.14,18.43,18.43,0,0,1,2,7.78,17.67,17.67,0,0,1-2,8.58m5.83-30.68a41.93,41.93,0,0,0-5.85-12.95A45.5,45.5,0,0,0,38.8,21.44a41.05,41.05,0,0,0-1.38,16.31,45.65,45.65,0,0,0,2.75,10.47,37.43,37.43,0,0,0,4.06,7.19,38.7,38.7,0,0,0,6.66-17c.69-4.67.69-8.75-.83-15.41"/><path class="cls-1" d="M34.89,56.84v7.87h0a7.07,7.07,0,0,1,10,0,7,7,0,0,1,0,9.9l0,0h-.08a14,14,0,1,1-9.89-23.93V31.94a25,25,0,1,0,18.3,42V56.84H34.89"/><path class="cls-1" d="M155.51,76c0,2.38-1.08,2.8-3.84,2.8h-2.54V67.89h2.54v4.19h.42c2.49,0,3.44.58,3.44,2.76V76m-21.22-6h-1.92V78.8H130V69.94h-2.06V67.88h6.39Zm-19.52,4.94c0,2.21-1.13,2.81-3.62,2.81v1.07H108.7V77.69c-2.51,0-3.64-.6-3.64-2.81V71.49c0-2.22,1.09-2.75,3.64-2.75v-.82h2.47v.82c2.54,0,3.62.56,3.62,2.75Zm-23-4.94H88.31v2.14h3.1v2.06h-3.1v2.6h3.48V78.8H85.68V67.88h6.11ZM70.74,78.76H68.2V74H66.89v4.76H64.35V67.87h2.54v4.2h1.3v-4.2h2.54ZM160,65.18H59.88V81.87H160Zm-52.46,6.24V74.9c0,.63.2.78.76.78h.41V70.62h-.41c-.56,0-.76.16-.76.8M152.2,74h-.56v2.85h.56c.57,0,.75-.15.75-.77V74.75c0-.62-.18-.77-.75-.77m-40.66-3.37h-.39v5.06h.39c.57,0,.78-.16.78-.81V71.38c0-.64-.21-.77-.78-.77"/></svg>