<?xml version="1.0" encoding="iso-8859-1"?>
<!-- Generator: Adobe Illustrator 16.0.3, SVG Export Plug-In . SVG Version: 6.00 Build 0)  -->
<!DOCTYPE svg PUBLIC "-//W3C//DTD SVG 1.1//EN" "http://www.w3.org/Graphics/SVG/1.1/DTD/svg11.dtd">
<svg version="1.1" xmlns="http://www.w3.org/2000/svg" xmlns:xlink="http://www.w3.org/1999/xlink" x="0px" y="0px"
	 width="253.34px" height="60px" viewBox="0 0 253.34 60" style="enable-background:new 0 0 253.34 60;" xml:space="preserve">
<g id="_1">
	<g>
		<rect id="XMLID_145_" x="113.112" y="0.331" style="fill:#0670B8;" width="1.542" height="59.691"/>
		<g>
			<path id="XMLID_142_" style="fill:#0670B8;" d="M79.753,28.292c-0.378,0-0.686-0.285-0.686-0.637l0.004-0.024V16.882v-0.048
				l0.004-0.045c0.035-0.316,0.322-0.567,0.675-0.567c0.352,0,0.644,0.251,0.678,0.567l0.004,0.045v0.048v10.749l0.003,0.024
				C80.435,28.007,80.128,28.292,79.753,28.292 M81.026,14.237h-2.551c-2.157,0-2.285,1.743-2.285,2.866v10.305
				c0,1.125,0.128,2.867,2.285,2.867h2.551c2.158,0,2.29-1.741,2.29-2.867V17.103C83.315,15.979,83.184,14.237,81.026,14.237"/>
			<polygon id="XMLID_141_" style="fill:#0670B8;" points="33.015,14.237 38.891,14.237 38.891,16.229 36.095,16.229 36.095,30.274 
				33.015,30.274 			"/>
			<path id="XMLID_138_" style="fill:#0670B8;" d="M39.346,30.274h3.012l0.289-4.263h1.453l0.285,4.263h3.015l-1.608-16.038h-4.837
				L39.346,30.274z M42.755,24.249l0.531-8.023h0.172l0.528,8.023H42.755z"/>
			<path id="XMLID_137_" style="fill:#0670B8;" d="M51.809,24.659v3.019c0,0.412,0.304,0.53,0.483,0.53
				c0.285,0,0.483-0.255,0.483-0.53v-3.729c0-0.503-0.086-1.051-1.235-1.051h-1.248v-1.765h1.293c0.879,0,1.19-0.21,1.19-1.189
				v-3.19c0-0.274-0.199-0.524-0.483-0.524c-0.179,0-0.483,0.114-0.483,0.524v2.616h-3.082v-2.266c0-1.123,0.134-2.866,2.288-2.866
				h2.554c2.157,0,2.288,1.743,2.288,2.866v2.567c0,1.738-1.168,2.218-2.094,2.173v0.161c2.067-0.049,2.094,1.603,2.094,2.177v3.227
				c0,1.125-0.131,2.867-2.288,2.867h-2.554c-2.154,0-2.288-1.741-2.288-2.867v-2.749H51.809z"/>
			<polygon id="XMLID_136_" style="fill:#0670B8;" points="57.883,14.237 65.011,14.237 65.011,30.274 62.137,30.274 62.137,16.229 
				60.755,16.229 60.755,30.274 57.883,30.274 			"/>
			<path id="XMLID_133_" style="fill:#0670B8;" d="M67.242,30.274h3.079v-5.452h1.76c2.157,0,2.5-1.741,2.5-2.868v-4.853
				c0-1.123-0.343-2.866-2.5-2.866h-4.839V30.274z M70.321,23.055v-6.826h0.809c0.334,0,0.576,0.297,0.576,0.799v5.228
				c0,0.504-0.242,0.799-0.576,0.799H70.321z"/>
			<polygon id="XMLID_132_" style="fill:#0670B8;" points="93.145,14.237 97.151,14.237 97.151,30.274 94.069,30.274 94.069,20.218 
				93.959,20.218 92.372,30.274 89.912,30.274 88.326,20.218 88.219,20.218 88.219,30.274 85.136,30.274 85.136,14.237 
				89.138,14.237 91.137,25.508 			"/>
			<path id="XMLID_128_" style="fill:#0670B8;" d="M26.445,15.867c-0.035,1.627-0.23,3.342-0.477,4.367
				c0.089-1.766-0.125-4.259-0.532-6.206c-0.406-1.947-1.558-5.194-2.477-6.701c-0.847,1.432-1.892,4.243-2.439,6.685
				c-0.55,2.44-0.566,5.394-0.566,6.281c-0.147-0.753-0.512-3.41-0.407-6.085c0.086-2.208,0.602-4.475,0.884-5.52
				c1.079-3.483,2.3-5.709,2.529-6.065c0.229,0.355,1.77,3.097,2.566,5.977C26.319,11.482,26.478,14.242,26.445,15.867
				 M22.979,28.312c-0.478-0.899-1.223-2.615-1.293-5.262c-0.019-2.565,1.007-4.761,1.309-5.22c0.27,0.459,1.149,2.372,1.255,4.988
				C24.322,25.378,23.475,27.393,22.979,28.312 M26.726,8.636c-0.972-4.261-3.414-7.728-3.747-8.292
				c-0.532,0.794-2.478,3.853-3.466,7.248c-1.079,3.786-1.238,7.143-0.867,10.452c0.372,3.305,1.77,6.699,1.77,6.699
				c0.742,1.784,1.856,3.691,2.579,4.629c1.06-1.379,3.504-5.494,4.263-10.869C27.68,15.515,27.696,12.896,26.726,8.636"/>
			<path id="XMLID_127_" style="fill:#0670B8;" d="M17.007,30.271v5.041c0.006-0.007,0.012-0.013,0.021-0.02
				c1.762-1.756,4.619-1.756,6.382,0c1.765,1.753,1.765,4.603,0,6.357l-0.021,0.021v0.002c-0.011,0.008-0.019,0.016-0.025,0.023
				c-1.761,1.737-4.059,2.608-6.356,2.608c-2.305,0-4.615-0.881-6.375-2.628c-3.101-3.093-3.472-7.874-1.105-11.367
				c0.318-0.472,0.685-0.92,1.105-1.335c1.76-1.755,4.07-2.629,6.375-2.629V14.323c-8.866,0-16.062,7.162-16.062,15.988
				c0,8.835,7.195,15.996,16.062,15.996c4.627,0,8.791-1.95,11.719-5.064V30.271H17.007z"/>
			<path id="XMLID_117_" style="fill:#0670B8;" d="M94.273,42.518c0,1.526-0.694,1.796-2.461,1.796h-1.625v-6.962h1.625v2.687h0.272
				c1.598,0,2.189,0.372,2.189,1.765V42.518z M80.707,38.667h-1.232v5.651h-1.546v-5.651h-1.319v-1.322h4.098V38.667z M68.198,41.83
				c0,1.414-0.719,1.794-2.32,1.794v0.689h-1.581v-0.689c-1.607,0-2.333-0.38-2.333-1.794v-2.175c0-1.42,0.697-1.781,2.333-1.781
				v-0.522h1.581v0.522c1.625,0,2.32,0.361,2.32,1.781V41.83z M53.461,38.667h-2.224v1.37h1.989v1.318h-1.989v1.642h2.224v1.321
				h-3.902v-6.974h3.902V38.667z M39.978,44.313h-1.627v-3.048h-0.835v3.048h-1.626v-6.962h1.626v2.687h0.835v-2.687h1.627V44.313z
				 M97.151,35.614H33.015v10.692h64.137V35.614z M63.546,39.61v2.229c0,0.409,0.131,0.504,0.489,0.504h0.262v-3.245h-0.262
				C63.677,39.099,63.546,39.202,63.546,39.61 M92.174,41.266h-0.362v1.817h0.362c0.365,0,0.474-0.093,0.474-0.49v-0.837
				C92.647,41.355,92.539,41.266,92.174,41.266 M66.128,39.099h-0.25v3.245h0.25c0.362,0,0.492-0.104,0.492-0.514v-2.238
				C66.62,39.183,66.49,39.099,66.128,39.099"/>
		</g>
		<g>
			<path style="fill:#0670B8;" d="M135.697,25.853c-1.524,0-2.697-0.508-3.598-1.407c-1.349-1.369-1.407-2.758-1.407-5.671
				c0-2.914,0.059-4.302,1.407-5.67c0.9-0.899,2.073-1.408,3.598-1.408c2.563,0,4.479,1.525,4.967,4.282h-2.15
				c-0.313-1.427-1.271-2.405-2.816-2.405c-0.841,0-1.544,0.313-2.054,0.861c-0.702,0.743-0.841,1.584-0.841,4.341
				c0,2.758,0.139,3.598,0.841,4.341c0.51,0.547,1.213,0.859,2.054,0.859c1.546,0,2.522-0.977,2.855-2.404h2.111
				C140.176,24.328,138.238,25.853,135.697,25.853z"/>
			<path style="fill:#0670B8;" d="M147.209,17.563v8.174h-1.993v-8.174h-3.149v-1.74h8.174v1.74H147.209z"/>
			<path style="fill:#0670B8;" d="M159.139,24.974c-0.548,0.547-1.389,0.879-2.405,0.879c-1.056,0-1.877-0.254-2.602-1.133v5.025
				h-1.993V15.822h1.954v1.055c0.744-0.899,1.563-1.172,2.62-1.172c1.018,0,1.878,0.332,2.426,0.879
				c0.959,0.978,1.113,2.561,1.113,4.185C160.252,22.393,160.098,23.996,159.139,24.974z M156.206,17.484
				c-1.82,0-2.074,1.525-2.074,3.286c0,1.759,0.254,3.305,2.074,3.305c1.798,0,2.052-1.545,2.052-3.305
				C158.258,19.009,158.004,17.484,156.206,17.484z"/>
			<path style="fill:#0670B8;" d="M164.329,21.356c0,1.721,0.88,2.776,2.521,2.776c1.115,0,1.703-0.312,2.407-1.017l1.27,1.193
				c-1.018,1.017-1.974,1.544-3.715,1.544c-2.483,0-4.459-1.309-4.459-5.083c0-3.227,1.663-5.064,4.204-5.064
				c2.661,0,4.204,1.916,4.204,4.81v0.841H164.329z M168.515,18.619c-0.334-0.744-1.017-1.252-1.957-1.252
				c-0.958,0-1.644,0.508-1.975,1.252c-0.195,0.43-0.234,0.742-0.254,1.349h4.459C168.75,19.361,168.71,19.049,168.515,18.619z"/>
			<path style="fill:#0670B8;" d="M181.174,25.737v-6.356l-2.289,4.537h-1.251l-2.326-4.537v6.356h-1.995v-9.915h1.974l2.974,5.906
				l2.952-5.906h1.955v9.915H181.174z"/>
			<path style="fill:#0670B8;" d="M192.504,25.737v-6.825l-4.244,6.825h-1.994v-9.915h1.994v6.727l4.244-6.727h1.995v9.915H192.504z
				"/>
			<path style="fill:#0670B8;" d="M205.625,25.737v-6.356l-2.287,4.537h-1.252l-2.328-4.537v6.356h-1.993v-9.915h1.976l2.972,5.906
				l2.953-5.906h1.956v9.915H205.625z"/>
			<path style="fill:#0670B8;" d="M214.44,25.853c-2.229,0-4.42-1.368-4.42-5.083c0-3.716,2.191-5.064,4.42-5.064
				c1.369,0,2.327,0.391,3.267,1.387l-1.371,1.33c-0.624-0.685-1.114-0.938-1.896-0.938c-0.763,0-1.407,0.313-1.837,0.879
				c-0.432,0.548-0.588,1.252-0.588,2.406c0,1.153,0.156,1.876,0.588,2.424c0.43,0.567,1.074,0.88,1.837,0.88
				c0.781,0,1.271-0.254,1.896-0.939l1.371,1.31C216.768,25.442,215.81,25.853,214.44,25.853z"/>
			<path style="fill:#0670B8;" d="M219.349,25.737l2.151-4.069c-1.251-0.351-2.054-1.387-2.054-2.815
				c0-1.779,1.292-3.031,3.207-3.031h4.675v9.915h-1.993v-3.696h-1.82l-1.877,3.696H219.349z M225.354,17.426h-2.329
				c-1.035,0-1.623,0.587-1.623,1.525c0,0.919,0.588,1.486,1.623,1.486h2.329V17.426z"/>
			<path style="fill:#0670B8;" d="M131.027,46.271v-9.913h2.013v9.913H131.027z M137.424,46.271l-4.009-5.162l3.775-4.751h2.384
				l-3.948,4.652l4.242,5.261H137.424z"/>
			<path style="fill:#0670B8;" d="M146.919,44.334c-0.47-0.997-0.588-2.716-0.588-4.379c0-4.302,0.234-5.396,1.487-6.473
				c1.271-1.114,3.266-1.173,5.943-1.251v1.758c-1.289,0.118-3.304-0.019-4.439,0.765c-0.938,0.625-1.19,1.504-1.19,2.913
				c0.43-0.782,1.524-1.291,2.716-1.291c0.959,0,1.841,0.294,2.426,0.842c0.879,0.82,1.291,2.308,1.291,4.066
				c0,1.975-0.353,3.109-1.213,3.989c-0.684,0.704-1.72,1.114-2.855,1.114C148.854,46.388,147.524,45.664,146.919,44.334z
				 M151.944,44.002c0.41-0.488,0.625-1.31,0.625-2.64c0-1.329-0.176-2.171-0.605-2.66c-0.371-0.41-0.921-0.624-1.486-0.624
				c-0.606,0-1.134,0.194-1.506,0.624c-0.41,0.471-0.665,1.312-0.665,2.622c0,1.407,0.255,2.17,0.704,2.678
				c0.371,0.392,0.88,0.587,1.467,0.587C151.025,44.589,151.573,44.413,151.944,44.002z"/>
			<path style="fill:#0670B8;" d="M163.461,45.215c-0.646,0.664-1.623,1.173-2.973,1.173c-1.349,0-2.308-0.509-2.953-1.173
				c-0.938-0.979-1.174-2.229-1.174-3.911c0-1.662,0.236-2.914,1.174-3.891c0.646-0.665,1.604-1.174,2.953-1.174
				c1.35,0,2.326,0.509,2.973,1.174c0.938,0.977,1.172,2.229,1.172,3.891C164.633,42.985,164.399,44.236,163.461,45.215z
				 M161.954,38.586c-0.372-0.371-0.879-0.566-1.466-0.566c-0.588,0-1.075,0.195-1.447,0.566c-0.607,0.605-0.686,1.644-0.686,2.718
				c0,1.076,0.078,2.112,0.686,2.718c0.372,0.372,0.859,0.587,1.447,0.587c0.587,0,1.094-0.215,1.466-0.587
				c0.606-0.605,0.684-1.642,0.684-2.718C162.638,40.229,162.561,39.191,161.954,38.586z"/>
			<path style="fill:#0670B8;" d="M172.73,46.271v-8.174h-2.875v2.875c0,4.204-1.231,5.299-3.167,5.299h-0.939v-1.76h0.313
				c0.86,0,1.876-0.196,1.876-4.029v-4.124h6.785v9.913H172.73z"/>
			<path style="fill:#0670B8;" d="M182.438,46.271h-4.614v-9.913h1.993v3.735h2.621c1.914,0,3.206,1.25,3.206,3.088
				S184.353,46.271,182.438,46.271z M182.104,41.734h-2.287v2.912h2.287c0.997,0,1.564-0.546,1.564-1.466
				C183.669,42.281,183.102,41.734,182.104,41.734z"/>
			<path style="fill:#0670B8;" d="M187.861,46.271v-9.913h1.996v8.173h3.363v-8.173h1.994v8.173h3.344v-8.173h1.994v9.913H187.861z"
				/>
			<path style="fill:#0670B8;" d="M205.308,41.891c0,1.72,0.88,2.776,2.522,2.776c1.112,0,1.701-0.313,2.404-1.017l1.271,1.193
				c-1.018,1.017-1.975,1.544-3.716,1.544c-2.482,0-4.458-1.31-4.458-5.084c0-3.226,1.663-5.064,4.203-5.064
				c2.66,0,4.204,1.916,4.204,4.81v0.842H205.308z M209.492,39.153c-0.333-0.744-1.017-1.251-1.957-1.251
				c-0.958,0-1.642,0.507-1.975,1.251c-0.195,0.43-0.233,0.742-0.253,1.349h4.458C209.727,39.896,209.688,39.583,209.492,39.153z"/>
			<path style="fill:#0670B8;" d="M222.34,46.271v-6.354l-2.289,4.536h-1.25l-2.328-4.536v6.354h-1.994v-9.913h1.975l2.972,5.905
				l2.952-5.905h1.957v9.913H222.34z"/>
			<path style="fill:#0670B8;" d="M230.631,48.246c-0.488,1.349-1.328,1.955-2.756,1.955h-0.801v-1.8h0.507
				c0.822,0,1.135-0.194,1.429-1.035l0.547-1.565l-3.48-9.443h2.132l2.365,6.999l2.308-6.999h2.131L230.631,48.246z"/>
			<path style="fill:#0670B8;" d="M239.61,42.125h-1.566l-0.43-9.777h2.426L239.61,42.125z M237.731,46.271V44.14h2.189v2.131
				H237.731z"/>
		</g>
	</g>
</g>
<g id="Layer_2" style="display:none;">
	<g>
		<g style="display:inline;">
		</g>
		<g style="display:inline;">
		</g>
	</g>
	<g style="display:inline;">
		<rect x="116.524" y="0.114" style="fill:#0070BA;" width="1.546" height="59.786"/>
		<g>
			<path style="fill:#0070BA;" d="M142.398,34.771l-0.926-2.708h-5.322l-0.926,2.708h-2.179l4.942-13.479h1.646l4.941,13.479
				H142.398z M138.858,24.339l-2.103,5.981h4.147L138.858,24.339z"/>
			<path style="fill:#0070BA;" d="M146.206,23.279v-2.045h2.046v2.045H146.206z M146.264,34.771v-9.599h1.93v9.599H146.264z"/>
			<path style="fill:#0070BA;" d="M162.963,34.771V28.92c0-1.495-0.854-2.139-1.932-2.139c-1.043,0-1.988,0.662-1.988,2.044v5.945
				h-1.932V28.92c0-1.495-0.852-2.139-1.932-2.139c-1.078,0-1.986,0.662-1.986,2.139v5.851h-1.932v-9.599h1.893v0.965
				c0.645-0.701,1.59-1.08,2.556-1.08c1.192,0,2.121,0.474,2.726,1.401c0.776-0.947,1.743-1.401,3.012-1.401
				c0.984,0,1.855,0.322,2.422,0.871c0.738,0.72,1.024,1.629,1.024,2.708v6.134H162.963z"/>
			<path style="fill:#0070BA;" d="M167.811,23.279v-2.045h2.043v2.045H167.811z M167.867,34.771v-9.599h1.931v9.599H167.867z"/>
			<path style="fill:#0070BA;" d="M178.715,34.771V28.92c0-1.495-0.852-2.139-1.93-2.139c-1.08,0-1.988,0.662-1.988,2.139v5.851
				h-1.932v-9.599h1.893v0.965c0.664-0.719,1.592-1.08,2.557-1.08c0.984,0,1.798,0.322,2.367,0.871
				c0.738,0.72,0.965,1.629,0.965,2.708v6.134H178.715z"/>
			<path style="fill:#0070BA;" d="M186.838,38.766c-1.456,0-2.383-0.341-3.388-1.27l1.231-1.23c0.604,0.568,1.137,0.852,2.082,0.852
				c1.628,0,2.253-1.153,2.253-2.44v-1.232c-0.701,0.834-1.497,1.099-2.48,1.099c-0.966,0-1.759-0.322-2.291-0.852
				c-0.927-0.928-1.079-2.271-1.079-3.9c0-1.627,0.152-2.973,1.079-3.899c0.532-0.53,1.345-0.834,2.31-0.834
				c1.022,0,1.799,0.266,2.518,1.136v-1.021h1.875v9.543C190.947,37.06,189.395,38.766,186.838,38.766z M187.067,26.781
				c-1.743,0-1.971,1.496-1.971,3.01c0,1.515,0.228,3.01,1.971,3.01c1.741,0,1.949-1.495,1.949-3.01
				C189.017,28.277,188.809,26.781,187.067,26.781z"/>
			<path style="fill:#0070BA;" d="M204.373,34.771v-5.888c0-1.458-0.853-2.101-1.932-2.101s-1.951,0.662-1.951,2.101v5.888h-1.93
				V21.291h1.93v4.846c0.662-0.719,1.534-1.08,2.479-1.08c2.142,0,3.333,1.44,3.333,3.522v6.19H204.373z"/>
			<path style="fill:#0070BA;" d="M209.219,23.279v-2.045h2.046v2.045H209.219z M209.277,34.771v-9.599h1.931v9.599H209.277z"/>
			<path style="fill:#0070BA;" d="M217.493,38.766c-1.458,0-2.384-0.341-3.388-1.27l1.229-1.23c0.607,0.568,1.137,0.852,2.084,0.852
				c1.629,0,2.252-1.153,2.252-2.44v-1.232c-0.699,0.834-1.494,1.099-2.479,1.099c-0.965,0-1.761-0.322-2.29-0.852
				c-0.93-0.928-1.079-2.271-1.079-3.9c0-1.627,0.149-2.973,1.079-3.899c0.529-0.53,1.344-0.834,2.31-0.834
				c1.022,0,1.799,0.266,2.518,1.136v-1.021h1.874v9.543C221.602,37.06,220.05,38.766,217.493,38.766z M217.722,26.781
				c-1.743,0-1.969,1.496-1.969,3.01c0,1.515,0.226,3.01,1.969,3.01c1.742,0,1.948-1.495,1.948-3.01
				C219.67,28.277,219.464,26.781,217.722,26.781z"/>
			<path style="fill:#0070BA;" d="M230.484,34.771v-5.888c0-1.458-0.854-2.101-1.934-2.101c-1.078,0-1.949,0.662-1.949,2.101v5.888
				h-1.932V21.291h1.932v4.846c0.663-0.719,1.533-1.08,2.48-1.08c2.14,0,3.332,1.44,3.332,3.522v6.19H230.484z"/>
			<path style="fill:#0070BA;" d="M236.808,30.53c0,1.647,0.87,2.687,2.441,2.687c1.08,0,1.648-0.302,2.329-0.983l1.23,1.155
				c-0.984,0.984-1.911,1.495-3.598,1.495c-2.403,0-4.316-1.269-4.316-4.922c0-3.106,1.609-4.904,4.071-4.904
				c2.575,0,4.069,1.894,4.069,4.621v0.852H236.808z M240.859,27.878c-0.304-0.718-0.985-1.21-1.894-1.21
				c-0.909,0-1.61,0.492-1.913,1.21c-0.189,0.436-0.227,0.72-0.245,1.307h4.316C241.104,28.599,241.049,28.314,240.859,27.878z"/>
			<path style="fill:#0070BA;" d="M250.874,27.425c-0.435-0.436-0.775-0.644-1.438-0.644c-1.041,0-1.911,0.833-1.911,2.157v5.832
				h-1.932v-9.599h1.895v1.042c0.491-0.682,1.476-1.156,2.557-1.156c0.925,0,1.625,0.246,2.288,0.909L250.874,27.425z"/>
		</g>
		<g>
			<polygon style="fill:#0070BA;" points="51.585,28.039 55.241,16.019 51.641,16.019 51.641,14.008 58.59,14.008 58.59,16.012
				54.937,27.997 58.776,27.997 58.776,30.064 51.585,30.064 			"/>
			<path style="fill:#0070BA;" d="M42.096,30.064h3.061l0.29-4.269h1.477l0.288,4.269h3.061l-1.632-16.057h-4.914L42.096,30.064z
				 M45.557,24.031L46.093,16h0.18l0.536,8.031H45.557z"/>
			<g>
				<path style="fill:#0070BA;" d="M60.536,30.064h3.127v-5.458h1.786c2.188,0,2.535-1.744,2.535-2.87v-4.86
					c0-1.125-0.348-2.869-2.535-2.869h-4.913V30.064z M63.663,22.838v-6.837h0.821c0.336,0,0.58,0.297,0.58,0.797v5.238
					c0,0.506-0.244,0.802-0.58,0.802H63.663z"/>
				<path style="fill:#0070BA;" d="M72.883,16.001h0.821c0.338,0,0.582,0.296,0.582,0.797v5.238c0,0.506-0.244,0.802-0.582,0.802
					h-0.821V16.001z M77.763,30.064l-1.51-5.92c0.79-0.595,0.952-1.643,0.952-2.41v-4.857c0-1.127-0.347-2.87-2.538-2.87h-4.914
					v16.057h3.13v-5.458h0.514l1.022,5.458H77.763z"/>
			</g>
			<polygon style="fill:#0070BA;" points="96.598,14.008 100.664,14.008 100.664,30.064 97.534,30.064 97.534,19.995 97.425,19.995
				95.813,30.064 93.316,30.064 91.707,19.995 91.595,19.995 91.595,30.064 88.466,30.064 88.466,14.008 92.53,14.008
				94.562,25.293 			"/>
			<g>
				<path style="fill:#0070BA;" d="M82.863,28.079c-0.385,0-0.692-0.284-0.692-0.637c0-0.008,0-0.016,0-0.023V16.655v-0.048
					l0.003-0.043c0.037-0.32,0.331-0.571,0.688-0.571c0.359,0,0.653,0.251,0.69,0.571l0.002,0.043v0.048v10.763
					c0,0.008,0,0.016,0,0.023C83.554,27.794,83.245,28.079,82.863,28.079 M84.157,14.008h-2.59c-2.192,0-2.321,1.743-2.321,2.869
					v10.316c0,1.128,0.129,2.872,2.321,2.872h2.59c2.188,0,2.322-1.744,2.322-2.872V16.876
					C86.479,15.751,86.345,14.008,84.157,14.008"/>
				<path style="fill:#0070BA;" d="M37.455,19.109h2.926v-2.232c0-1.125-0.134-2.869-2.323-2.869h-2.59
					c-2.191,0-2.321,1.743-2.321,2.869v10.316c0,1.127,0.13,2.872,2.321,2.872h2.59c2.189,0,2.323-1.745,2.323-2.872v-5.046h-3.745
					v1.812h0.819v3.46c0,0.008,0,0.016,0,0.023c0,0.352-0.309,0.637-0.691,0.637c-0.382,0-0.691-0.285-0.691-0.637
					c0-0.008,0-0.016,0-0.023V16.657v-0.05l0.003-0.043c0.035-0.32,0.329-0.571,0.688-0.571c0.357,0,0.651,0.251,0.688,0.571
					l0.003,0.043v0.05V19.109z"/>
				<path style="fill:#0070BA;" d="M97.827,38.472h-1.252v5.664h-1.573v-5.664h-1.341V37.15h4.166V38.472z M78.758,38.472h-2.263
					v1.373h2.025v1.322h-2.025v2.969h-1.708V37.15h3.971V38.472z M59.729,38.472h-2.259v1.373h2.024v1.322h-2.024v1.645h2.259v1.324
					h-3.968V37.15h3.968V38.472z M40.456,44.136h-1.649l-1.472-4.253h-0.009c0.078,0.739,0.286,1.85,0.286,2.598v1.655h-1.629V37.15
					h1.648l1.452,4.387h0.01c-0.049-0.779-0.267-1.875-0.267-2.646V37.15h1.63V44.136z M100.664,35.417H33.148v10.707h67.516V35.417
					z"/>
				<path style="fill:#0070BA;" d="M26.492,15.637c-0.037,1.628-0.234,3.348-0.484,4.374c0.089-1.77-0.124-4.269-0.539-6.217
					c-0.411-1.952-1.575-5.204-2.507-6.713c-0.857,1.436-1.917,4.254-2.47,6.693c-0.557,2.448-0.575,5.408-0.575,6.292
					c-0.146-0.75-0.517-3.414-0.411-6.093c0.086-2.212,0.61-4.482,0.896-5.528c1.092-3.491,2.329-5.721,2.56-6.073
					c0.234,0.352,1.792,3.099,2.6,5.984C26.364,11.245,26.527,14.008,26.492,15.637 M22.981,28.101
					c-0.484-0.902-1.236-2.621-1.31-5.272c-0.017-2.567,1.021-4.769,1.325-5.225c0.272,0.456,1.166,2.373,1.272,4.994
					C24.34,25.161,23.483,27.18,22.981,28.101 M26.777,8.392c-0.983-4.27-3.456-7.738-3.796-8.306
					c-0.539,0.798-2.511,3.861-3.51,7.264c-1.094,3.79-1.255,7.152-0.878,10.465c0.375,3.312,1.789,6.713,1.789,6.713
					c0.754,1.784,1.881,3.697,2.614,4.636c1.075-1.38,3.549-5.503,4.318-10.889C27.744,15.283,27.762,12.662,26.777,8.392"/>
				<path style="fill:#0070BA;" d="M16.935,30.064v5.049c0.005-0.006,0.011-0.015,0.02-0.022c1.783-1.756,4.68-1.756,6.464,0
					c1.787,1.76,1.787,4.615,0,6.369c-0.008,0.009-0.014,0.015-0.023,0.022c0,0.002,0,0.002,0,0.002
					c-0.008,0.008-0.018,0.017-0.027,0.024c-1.779,1.74-4.106,2.609-6.434,2.609c-2.338,0-4.674-0.879-6.46-2.633
					C7.334,38.39,6.96,33.601,9.356,30.103c0.322-0.472,0.694-0.919,1.119-1.339c1.786-1.755,4.122-2.63,6.46-2.63V14.089
					c-8.982,0-16.265,7.173-16.265,16.013c0,8.849,7.283,16.021,16.265,16.021c4.685,0,8.902-1.953,11.868-5.069v-10.99H16.935z"/>
			</g>
		</g>
	</g>
</g>
</svg>
